<?xml version="1.0" standalone="no"?>
<!DOCTYPE svg PUBLIC "-//W3C//DTD SVG 1.1//EN" "http://www.w3.org/Graphics/SVG/1.1/DTD/svg11.dtd" >
<svg>
<metadata>
Created by FontForge 20120731 at Fri Apr 22 05:24:14 2016
 By ,,,
Copr.1995, The Font Bureau, Inc.
</metadata>
<defs>
<font id="AgencyFB-BlackCompressed" horiz-adv-x="264" >
  <font-face 
    font-family="AgencyFB"
    font-weight="500"
    font-stretch="normal"
    units-per-em="1000"
    panose-1="2 0 6 8 3 0 0 2 0 3"
    ascent="800"
    descent="-200"
    x-height="515"
    cap-height="764"
    bbox="-72 -200 654 920"
    underline-thickness="20"
    underline-position="-123"
    unicode-range="U+0005-2122"
  />
<missing-glyph horiz-adv-x="500" 
 />
    <glyph glyph-name=".notdef" horiz-adv-x="500" 
 />
    <glyph glyph-name="NUL" horiz-adv-x="0" 
 />
    <glyph glyph-name="nonmarkingreturn" horiz-adv-x="100" 
 />
    <glyph glyph-name="space" unicode=" " horiz-adv-x="100" 
 />
    <glyph glyph-name="space" unicode="&#xa0;" horiz-adv-x="100" 
 />
    <glyph glyph-name="breve" 
d="M259 616v50h-85v-51h-82v51h-85v-50q0 -85 85 -85h82q85 0 85 85z" />
    <glyph glyph-name="dotaccent" 
d="M194 531v131h-123v-131h123z" />
    <glyph glyph-name="ring" 
d="M236 591v88q0 60 -60 60h-88q-60 0 -60 -60v-88q0 -60 60 -60h88q60 0 60 60zM156 611h-48v48h48v-48z" />
    <glyph glyph-name="hungarumlaut" unicode="&#xa;" 
d="M262 657v6h-106l-38 -126v-6h44zM149 657v6h-106l-38 -126v-6h44z" />
    <glyph glyph-name="ogonek" 
d="M239 -180v77h-117v18l71 90v5h-108l-43 -52q-8 -12 -14.5 -22t-6.5 -33v-24q0 -59 59 -59h159z" />
    <glyph glyph-name="caron" 
d="M251 666v5h-58l-60 -56l-60 56h-58v-5l81 -135h74z" />
    <glyph glyph-name="dotlessi" unicode="&#xd;" horiz-adv-x="137" 
d="M129 0v515h-121v-515h121z" />
    <glyph glyph-name="fraction" horiz-adv-x="322" 
d="M316 753v11h-113l-197 -753v-11h113z" />
    <glyph glyph-name="fi" horiz-adv-x="284" 
d="M276 0v515h-137v129h16v-113h121v173q0 60 -60 60h-138q-60 0 -60 -60v-189h-16v-120h16v-395h121v395h16v-395h121z" />
    <glyph glyph-name="fl" horiz-adv-x="284" 
d="M276 0v764h-198q-60 0 -60 -60v-189h-16v-120h16v-395h121v395h16v-395h121zM155 515h-16v129h16v-129z" />
    <glyph glyph-name="Lslash" horiz-adv-x="217" 
d="M209 0v128h-68v220l35 31v125h-7l-28 -25v285h-123v-396l-20 -18v-124h7l13 11v-237h191z" />
    <glyph glyph-name="lslash" horiz-adv-x="184" 
d="M184 369v125h-6l-29 -26v296h-121v-403l-28 -25v-124h8l20 18v-230h121v338z" />
    <glyph glyph-name="Zcaron" horiz-adv-x="226" 
d="M218 0v130h-84l84 528v106h-205v-129h81l-86 -539v-96h210zM231 915v5h-58l-60 -56l-60 56h-58v-5l81 -135h74z" />
    <glyph glyph-name="zcaron" horiz-adv-x="232" 
d="M224 0v120h-88l88 294v101h-216v-120h88l-88 -294v-101h216zM235 666v5h-58l-60 -56l-60 56h-58v-5l81 -135h74z" />
    <glyph glyph-name="exclam" unicode="!" horiz-adv-x="146" 
d="M144 764h-142l13 -608h116zM138 0v140h-130v-140h130z" />
    <glyph glyph-name="quotedbl" unicode="&#x22;" horiz-adv-x="318" 
d="M311 764h-146l33 -233h80zM153 764h-146l33 -233h80z" />
    <glyph glyph-name="numbersign" unicode="#" horiz-adv-x="421" 
d="M417 476v109h-53l21 179h-121l-21 -179h-19l21 179h-121l-21 -179h-64v-109h51l-21 -184h-65v-109h52l-21 -183h122l21 183h18l-21 -183h122l21 183h65v109h-52l21 184h65zM230 476l-21 -184h-18l21 184h18z" />
    <glyph glyph-name="dollar" unicode="$" horiz-adv-x="280" 
d="M272 94v175q0 12 -0.5 19t-2.5 13.5t-6 13t-11 16.5l-121 173v133h18v-122h123v155q0 45 -19 64.5t-54 19.5h-1v66h-116v-66h-1q-35 0 -54 -19.5t-19 -64.5v-174q0 -12 0.5 -19t2.5 -13.5t6 -13t11 -16.5l121 -173v-140h-18v130h-123v-157q0 -45 19 -64.5t54 -19.5h1v-66
h116v66h1q35 0 54 19.5t19 64.5z" />
    <glyph glyph-name="percent" unicode="%" horiz-adv-x="428" 
d="M420 60v263q0 60 -60 60h-100l136 370v11h-90l-80 -218v158q0 60 -60 60h-98q-60 0 -60 -60v-263q0 -60 60 -60h97l-136 -370v-11h90l83 226v-166q0 -60 60 -60h98q60 0 60 60zM125 466h-16v213h16v-213zM319 85h-16v213h16v-213z" />
    <glyph glyph-name="ampersand" unicode="&#x26;" horiz-adv-x="297" 
d="M297 339v123h-150l-18 18v170h18v-137h117v170q0 45 -19.5 64.5t-64.5 19.5h-84q-45 0 -64.5 -19.5t-19.5 -64.5v-187q0 -16 0.5 -25t3 -15.5t7.5 -12.5t14 -15l27 -27l-26 -26q-11 -11 -17 -18t-9 -14t-3.5 -16t-0.5 -25v-218q0 -45 19.5 -64.5t64.5 -19.5h168v339h37z
M143 117h-18v206l16 16h2v-222z" />
    <glyph glyph-name="quotesingle" unicode="'" horiz-adv-x="160" 
d="M153 764h-146l33 -233h80z" />
    <glyph glyph-name="parenleft" unicode="(" horiz-adv-x="222" 
d="M223 -98v5q-18 49 -32 97t-24 99t-15 107.5t-5 122.5t5 122.5t15 107.5t24 99t32 97v5h-134q-18 -45 -33 -92t-25.5 -99t-16.5 -111.5t-6 -128.5t6 -128.5t16.5 -111.5t25.5 -99t33 -92h134z" />
    <glyph glyph-name="parenright" unicode=")" horiz-adv-x="222" 
d="M214 333q0 69 -6 128.5t-16.5 111.5t-25.5 99t-33 92h-134v-5q18 -49 32 -97t24 -99t15 -107.5t5 -122.5t-5 -122.5t-15 -107.5t-24 -99t-32 -97v-5h134q18 45 33 92t25.5 99t16.5 111.5t6 128.5z" />
    <glyph glyph-name="asterisk" unicode="*" horiz-adv-x="474" 
d="M468 487l-144 54l144 52l-74 115l-110 -91l20 147h-136l22 -147l-110 91l-74 -115l143 -52l-143 -54l75 -115l109 93l-22 -149h136l-20 149l110 -93z" />
    <glyph glyph-name="plus" unicode="+" horiz-adv-x="374" 
d="M366 285v110h-116v138h-124v-138h-118v-110h118v-138h124v138h116z" />
    <glyph glyph-name="comma" unicode="," horiz-adv-x="146" 
d="M146 140h-138v-263h84z" />
    <glyph glyph-name="hyphen" unicode="-" horiz-adv-x="203" 
d="M195 217v136h-187v-136h187z" />
    <glyph glyph-name="period" unicode="." horiz-adv-x="146" 
d="M138 0v140h-130v-140h130z" />
    <glyph glyph-name="slash" unicode="/" horiz-adv-x="326" 
d="M318 753v11h-113l-197 -753v-11h113z" />
    <glyph glyph-name="zero" unicode="0" horiz-adv-x="268" 
d="M260 82v600q0 45 -19.5 64.5t-64.5 19.5h-84q-45 0 -64.5 -19.5t-19.5 -64.5v-600q0 -45 19.5 -64.5t64.5 -19.5h84q45 0 64.5 19.5t19.5 64.5zM143 115h-18v534h18v-534z" />
    <glyph glyph-name="one" unicode="1" horiz-adv-x="154" 
d="M146 0v764h-103l-41 -172v-30h27v-562h117z" />
    <glyph glyph-name="two" unicode="2" horiz-adv-x="268" 
d="M260 0v120h-126l111 362q5 16 8 27t4.5 20.5t2 20.5t0.5 28v104q0 45 -19.5 64.5t-64.5 19.5h-84q-45 0 -64.5 -19.5t-19.5 -64.5v-155h117v122h18v-114l-135 -442v-93h252z" />
    <glyph glyph-name="three" unicode="3" horiz-adv-x="268" 
d="M260 82v201q0 17 -1 27.5t-4.5 18.5t-10.5 16.5t-19 22.5l-22 24l22 23q12 13 19 21.5t10.5 17t4.5 19t1 27.5v182q0 45 -19.5 64.5t-64.5 19.5h-84q-45 0 -64.5 -19.5t-19.5 -64.5v-155h117v122h18v-164l-81 -86v-14l81 -88v-182h-18v122h-117v-155q0 -45 19.5 -64.5
t64.5 -19.5h84q45 0 64.5 19.5t19.5 64.5z" />
    <glyph glyph-name="four" unicode="4" horiz-adv-x="288" 
d="M283 117v120h-23v77h-112v-77h-19l80 521v6h-114l-90 -571v-76h143v-117h112v117h23z" />
    <glyph glyph-name="five" unicode="5" horiz-adv-x="268" 
d="M260 82v339q0 45 -19.5 64.5t-64.5 19.5h-54l6 139h132v120h-244l-11 -379h138v-270h-18v127h-117v-160q0 -45 19.5 -64.5t64.5 -19.5h84q45 0 64.5 19.5t19.5 64.5z" />
    <glyph glyph-name="six" unicode="6" horiz-adv-x="268" 
d="M260 82v275q0 45 -19.5 64.5t-64.5 19.5h-51v208h18v-127h117v160q0 45 -19.5 64.5t-64.5 19.5h-84q-45 0 -64.5 -19.5t-19.5 -64.5v-600q0 -45 19.5 -64.5t64.5 -19.5h84q45 0 64.5 19.5t19.5 64.5zM143 115h-18v209h18v-209z" />
    <glyph glyph-name="seven" unicode="7" horiz-adv-x="273" 
d="M265 657v107h-257v-242h112v125h30l-89 -647h118z" />
    <glyph glyph-name="eight" unicode="8" horiz-adv-x="280" 
d="M272 82v195q0 19 -1 31t-4 20.5t-9.5 16.5t-17.5 20l-25 27l26 27q14 16 22.5 31t8.5 47v185q0 45 -19.5 64.5t-64.5 19.5h-96q-45 0 -64.5 -19.5t-19.5 -64.5v-185q0 -16 2 -26.5t6 -19t9.5 -16t13.5 -16.5l26 -27l-25 -27q-12 -13 -18.5 -21t-9.5 -17t-3.5 -20
t-0.5 -30v-195q0 -45 19.5 -64.5t64.5 -19.5h96q45 0 64.5 19.5t19.5 64.5zM149 463l-9 -11l-9 11v186h18v-186zM149 115h-18v207l9 10l9 -10v-207z" />
    <glyph glyph-name="nine" unicode="9" horiz-adv-x="268" 
d="M260 82v600q0 45 -19.5 64.5t-64.5 19.5h-84q-45 0 -64.5 -19.5t-19.5 -64.5v-275q0 -45 19.5 -64.5t64.5 -19.5h51v-208h-18v127h-117v-160q0 -45 19.5 -64.5t64.5 -19.5h84q45 0 64.5 19.5t19.5 64.5zM143 440h-18v209h18v-209z" />
    <glyph glyph-name="colon" unicode=":" horiz-adv-x="146" 
d="M138 295v140h-130v-140h130zM138 0v140h-130v-140h130z" />
    <glyph glyph-name="semicolon" unicode=";" horiz-adv-x="146" 
d="M138 295v140h-130v-140h130zM146 140h-138v-263h84z" />
    <glyph glyph-name="less" unicode="&#x3c;" horiz-adv-x="284" 
d="M276 90v151l-140 104l140 106v151h-11l-257 -201v-111l257 -200h11z" />
    <glyph glyph-name="equal" unicode="=" horiz-adv-x="379" 
d="M371 384v124h-363v-124h363zM371 245v123h-363v-123h363z" />
    <glyph glyph-name="greater" unicode="&#x3e;" horiz-adv-x="284" 
d="M276 290v111l-257 201h-11v-151l142 -106l-142 -104v-151h11z" />
    <glyph glyph-name="question" unicode="?" horiz-adv-x="280" 
d="M272 541v139q0 45 -19.5 64.5t-64.5 19.5h-96q-45 0 -64.5 -19.5t-19.5 -64.5v-151h123v118h18v-129l-67 -165q-5 -13 -8 -21.5t-4.5 -16t-2 -17t-0.5 -25.5v-117h124v142l66 165q5 13 8 20.5t4.5 15t2 17t0.5 25.5zM194 0v140h-130v-140h130z" />
    <glyph glyph-name="at" unicode="@" horiz-adv-x="472" 
d="M464 0v60h-396v644h336v-477h-69v327q0 51 -51 51h-99q-51 0 -51 -51v-98h88v59h19v-81h-60q-51 0 -51 -51v-165q0 -51 51 -51h223q60 0 60 60v477q0 60 -60 60h-336q-60 0 -60 -60v-644q0 -60 60 -60h396zM241 247h-19v109h19v-109z" />
    <glyph glyph-name="A" unicode="A" horiz-adv-x="290" 
d="M288 0v2l-73 762h-140l-73 -762v-2h115l6 119h44l6 -119h115zM160 242h-30l15 276z" />
    <glyph glyph-name="B" unicode="B" horiz-adv-x="280" 
d="M272 84v204q0 21 -2 35t-8 25.5t-16.5 21.5t-26.5 23l-13 10l12 9q15 11 25 20.5t15.5 20t8 25t2.5 35.5v167q0 45 -19.5 64.5t-64.5 19.5h-177v-764h180q45 0 64.5 19.5t19.5 64.5zM149 480l-17 -15h-1v182h18v-167zM149 117h-18v221h1l17 -14v-207z" />
    <glyph glyph-name="C" unicode="C" horiz-adv-x="280" 
d="M272 81v169h-123v-136h-18v536h18v-132h123v165q0 45 -19.5 64.5t-64.5 19.5h-96q-45 0 -64.5 -19.5t-19.5 -64.5v-602q0 -45 19.5 -64.5t64.5 -19.5h96q45 0 64.5 19.5t19.5 64.5z" />
    <glyph glyph-name="D" unicode="D" horiz-adv-x="280" 
d="M272 84v596q0 45 -19.5 64.5t-64.5 19.5h-180v-764h180q45 0 64.5 19.5t19.5 64.5zM149 126q0 -9 -9 -9h-9v530h9q9 0 9 -9v-512z" />
    <glyph glyph-name="E" unicode="E" horiz-adv-x="214" 
d="M208 0v123h-77v212h71v123h-71v183h75v123h-198v-764h200z" />
    <glyph glyph-name="F" unicode="F" horiz-adv-x="214" 
d="M210 641v123h-202v-764h123v335h66v123h-66v183h79z" />
    <glyph glyph-name="G" unicode="G" horiz-adv-x="280" 
d="M272 81v355h-132v-123h9v-199h-18v536h18v-106h123v139q0 45 -19.5 64.5t-64.5 19.5h-96q-45 0 -64.5 -19.5t-19.5 -64.5v-602q0 -45 19.5 -64.5t64.5 -19.5h96q45 0 64.5 19.5t19.5 64.5z" />
    <glyph glyph-name="H" unicode="H" horiz-adv-x="280" 
d="M272 0v764h-123v-296h-18v296h-123v-764h123v342h18v-342h123z" />
    <glyph glyph-name="I" unicode="I" horiz-adv-x="139" 
d="M131 0v764h-123v-764h123z" />
    <glyph glyph-name="J" unicode="J" horiz-adv-x="280" 
d="M272 81v683h-123v-650h-18v136h-123v-169q0 -45 19.5 -64.5t64.5 -19.5h96q45 0 64.5 19.5t19.5 64.5z" />
    <glyph glyph-name="K" unicode="K" horiz-adv-x="290" 
d="M286 0v5l-52 388l45 366v5h-119l-29 -341v341h-123v-764h123v364l31 -364h124z" />
    <glyph glyph-name="L" unicode="L" horiz-adv-x="207" 
d="M199 0v128h-68v636h-123v-764h191z" />
    <glyph glyph-name="M" unicode="M" horiz-adv-x="374" 
d="M366 0v764h-122l-40 -185q-8 -35 -11.5 -64t-5.5 -61q-2 32 -5.5 61t-11.5 64l-40 185h-122v-764h122v254q0 7 -0.5 31t-1.5 49t-1.5 45l-0.5 20l26 -304h70l26 304l-0.5 -20t-1.5 -45t-1.5 -49t-0.5 -31v-254h122z" />
    <glyph glyph-name="N" unicode="N" horiz-adv-x="300" 
d="M292 0v764h-120v-230q0 -6 1 -22.5t1.5 -34t1.5 -31.5l1 -14l-54 332h-115v-764h120v230q0 6 -1 22.5t-1.5 34t-1.5 31.5l-1 14l54 -332h115z" />
    <glyph glyph-name="O" unicode="O" horiz-adv-x="280" 
d="M272 81v602q0 45 -19.5 64.5t-64.5 19.5h-96q-45 0 -64.5 -19.5t-19.5 -64.5v-602q0 -45 19.5 -64.5t64.5 -19.5h96q45 0 64.5 19.5t19.5 64.5zM149 114h-18v536h18v-536z" />
    <glyph glyph-name="P" unicode="P" horiz-adv-x="280" 
d="M272 352v328q0 45 -19.5 64.5t-64.5 19.5h-180v-764h123v268h57q45 0 64.5 19.5t19.5 64.5zM149 386h-18v261h18v-261z" />
    <glyph glyph-name="Q" unicode="Q" horiz-adv-x="284" 
d="M284 0v122l-12 14v547q0 45 -19.5 64.5t-64.5 19.5h-96q-45 0 -64.5 -19.5t-19.5 -64.5v-602q0 -45 19.5 -64.5t64.5 -19.5h96q49 0 66 21l3 4l20 -22h7zM149 114h-18v536h18v-375l-4 4h-7v-125l11 -12v-28z" />
    <glyph glyph-name="R" unicode="R" horiz-adv-x="288" 
d="M286 0v7l-44 356l4 2q12 6 19 19.5t7 46.5v249q0 45 -19.5 64.5t-64.5 19.5h-180v-764h123v647h18v-211h-10v-155l30 -281h117z" />
    <glyph glyph-name="S" unicode="S" horiz-adv-x="280" 
d="M272 81v188q0 19 -4.5 33t-15.5 29l-121 173v146h18v-135h123v168q0 45 -19.5 64.5t-64.5 19.5h-96q-45 0 -64.5 -19.5t-19.5 -64.5v-187q0 -19 4.5 -32.5t15.5 -29.5l121 -173v-147h-18v137h-123v-170q0 -45 19.5 -64.5t64.5 -19.5h96q45 0 64.5 19.5t19.5 64.5z" />
    <glyph glyph-name="T" unicode="T" horiz-adv-x="239" 
d="M235 641v123h-231v-123h54v-641h123v641h54z" />
    <glyph glyph-name="U" unicode="U" horiz-adv-x="280" 
d="M272 81v683h-123v-650h-18v650h-123v-683q0 -45 19.5 -64.5t64.5 -19.5h96q45 0 64.5 19.5t19.5 64.5z" />
    <glyph glyph-name="V" unicode="V" horiz-adv-x="296" 
d="M291 762v2h-123l-20 -458l-20 458h-123v-2l73 -762h140z" />
    <glyph glyph-name="W" unicode="W" horiz-adv-x="404" 
d="M401 764h-123l-13 -274q0 -8 -0.5 -30.5t-1 -47t-1 -43.5l-0.5 -19l-0.5 19t-1 43.5t-1.5 47t-1 30.5l-13 274h-86l-13 -274q0 -8 -1 -30.5t-1.5 -46.5t-1 -43l-0.5 -19l-0.5 19t-1 43t-1 46.5t-0.5 30.5l-13 274h-123l55 -764h123l17 201q1 7 1.5 22.5l1 31t1 27
l0.5 11.5l0.5 -11.5t1 -27l1 -31t1.5 -22.5l17 -201h123z" />
    <glyph glyph-name="X" unicode="X" horiz-adv-x="282" 
d="M282 0v3l-49 380l42 378v3h-118l-16 -262l-16 262h-118v-3l42 -378l-49 -380v-3h123l18 254l18 -254h123z" />
    <glyph glyph-name="Y" unicode="Y" horiz-adv-x="292" 
d="M290 761v3h-124l-20 -255l-20 255h-124v-3l82 -499v-262h124v261z" />
    <glyph glyph-name="Z" unicode="Z" horiz-adv-x="226" 
d="M218 0v130h-84l84 528v106h-205v-129h81l-86 -539v-96h210z" />
    <glyph glyph-name="bracketleft" unicode="[" horiz-adv-x="212" 
d="M204 -121v121h-73v643h73v121h-112q-45 0 -64.5 -19t-19.5 -64v-718q0 -46 19.5 -65t64.5 -19h112z" />
    <glyph glyph-name="backslash" unicode="\" horiz-adv-x="326" 
d="M318 0v11l-197 753h-113v-11l197 -753h113z" />
    <glyph glyph-name="bracketright" unicode="]" horiz-adv-x="212" 
d="M204 -37v718q0 45 -19.5 64t-64.5 19h-112v-121h73v-643h-73v-121h112q45 0 64.5 19t19.5 65z" />
    <glyph glyph-name="asciicircum" unicode="^" horiz-adv-x="278" 
d="M275 494v9l-71 261h-129l-74 -261v-9h88l47 103l49 -103h90z" />
    <glyph glyph-name="underscore" unicode="_" horiz-adv-x="300" 
d="M300 -200v102h-300v-102h300z" />
    <glyph glyph-name="grave" unicode="`" 
d="M238 531v7l-65 133h-130v-7l110 -133h85z" />
    <glyph glyph-name="a" unicode="a" 
d="M256 0v455q0 60 -60 60h-124q-60 0 -60 -60v-118h112v73h16v-89h-72q-60 0 -60 -60v-201q0 -30 12.5 -45.5t42.5 -15.5q11 0 21 1.5t29 6.5l27 8v-15h116zM140 105h-16v120h16v-120z" />
    <glyph glyph-name="b" unicode="b" horiz-adv-x="274" 
d="M266 80v375q0 30 -12.5 45.5t-42.5 15.5q-11 0 -24.5 -2.5t-25.5 -5.5l-32 -8v264h-121v-764h178q38 0 59 21t21 59zM145 113q0 -8 -8 -8h-8v305h16v-297z" />
    <glyph glyph-name="c" unicode="c" 
d="M256 60v160h-116v-115h-16v305h16v-111h116v156q0 60 -60 60h-128q-60 0 -60 -60v-395q0 -60 60 -60h128q60 0 60 60z" />
    <glyph glyph-name="d" unicode="d" horiz-adv-x="274" 
d="M266 0v764h-121v-249h-57q-38 0 -59 -21t-21 -59v-375q0 -30 12.5 -45.5t42.5 -15.5q11 0 24.5 2.5t25.5 5.5l32 8v-15h121zM145 105h-3h-5q-8 0 -8 8v289q0 8 8 8h8v-305z" />
    <glyph glyph-name="e" unicode="e" 
d="M256 60v143h-116v-98h-16v114h102l30 30v206q0 60 -60 60h-128q-60 0 -60 -60v-395q0 -60 60 -60h128q60 0 60 60zM140 313h-16v97h16v-97z" />
    <glyph glyph-name="f" unicode="f" horiz-adv-x="157" 
d="M163 644v120h-85q-60 0 -60 -60v-189h-16v-120h16v-395h121v395h16v120h-16v129h24z" />
    <glyph glyph-name="g" unicode="g" horiz-adv-x="274" 
d="M266 -120v635h-121v-15l-32 8q-12 3 -25.5 5.5t-24.5 2.5q-30 0 -42.5 -15.5t-12.5 -45.5v-375q0 -38 21 -59t59 -21h57v-80h-16v64h-117v-104q0 -60 60 -60h134q60 0 60 60zM145 105h-8q-8 0 -8 8v289q0 8 8 8h5h3v-305z" />
    <glyph glyph-name="h" unicode="h" horiz-adv-x="274" 
d="M266 0v455q0 30 -12.5 45.5t-42.5 15.5q-11 0 -24.5 -2.5t-25.5 -5.5l-32 -8v264h-121v-764h121v410h16v-410h121z" />
    <glyph glyph-name="i" unicode="i" horiz-adv-x="137" 
d="M129 531v142h-121v-142h121zM129 0v515h-121v-515h121z" />
    <glyph glyph-name="j" unicode="j" horiz-adv-x="137" 
d="M129 531v142h-121v-142h121zM129 -120v635h-121v-575h-32v-120h93q60 0 60 60z" />
    <glyph glyph-name="k" unicode="k" horiz-adv-x="275" 
d="M280 0v1l-50 279l45 234v1h-121l-25 -197v446h-121v-764h121v243l30 -243h121z" />
    <glyph glyph-name="l" unicode="l" horiz-adv-x="137" 
d="M129 0v764h-121v-764h121z" />
    <glyph glyph-name="m" unicode="m" horiz-adv-x="411" 
d="M403 0v455q0 30 -10 45.5t-40 15.5q-11 0 -25.5 -2.5t-26.5 -5.5l-43 -10l-2 3q-11 15 -40 15q-11 0 -25.5 -2.5t-26.5 -5.5l-35 -8v15h-121v-515h121v410h16v-410h121v410h16v-410h121z" />
    <glyph glyph-name="n" unicode="n" horiz-adv-x="274" 
d="M266 0v455q0 30 -12.5 45.5t-42.5 15.5q-11 0 -24.5 -2.5t-25.5 -5.5l-32 -8v15h-121v-515h121v410h16v-410h121z" />
    <glyph glyph-name="o" unicode="o" 
d="M256 60v395q0 60 -60 60h-128q-60 0 -60 -60v-395q0 -60 60 -60h128q60 0 60 60zM140 105h-16v305h16v-305z" />
    <glyph glyph-name="p" unicode="p" horiz-adv-x="274" 
d="M266 80v375q0 30 -12.5 45.5t-42.5 15.5q-11 0 -24.5 -2.5t-25.5 -5.5l-32 -8v15h-121v-695h121v180h57q38 0 59 21t21 59zM145 113q0 -8 -8 -8h-8v305h16v-297z" />
    <glyph glyph-name="q" unicode="q" horiz-adv-x="274" 
d="M266 -180v695h-121v-15l-32 8q-12 3 -25.5 5.5t-24.5 2.5q-30 0 -42.5 -15.5t-12.5 -45.5v-375q0 -38 21 -59t59 -21h57v-180h121zM145 105h-8q-8 0 -8 8v289q0 8 8 8h5h3v-305z" />
    <glyph glyph-name="r" unicode="r" horiz-adv-x="274" 
d="M266 264v191q0 30 -12.5 45.5t-42.5 15.5q-11 0 -24.5 -2.5t-25.5 -5.5l-32 -8v15h-121v-515h121v410h16v-146h121z" />
    <glyph glyph-name="s" unicode="s" 
d="M256 60v164q0 19 -6.5 29.5t-25.5 21.5l-100 57v78h16v-71h116v116q0 60 -60 60h-128q-60 0 -60 -60v-162q0 -19 7.5 -30t24.5 -21l100 -58v-79h-16v72h-116v-117q0 -60 60 -60h128q60 0 60 60z" />
    <glyph glyph-name="t" unicode="t" horiz-adv-x="167" 
d="M165 0v120h-22v275h22v120h-22v108h-121v-108h-20v-120h20v-335q0 -60 60 -60h83z" />
    <glyph glyph-name="u" unicode="u" horiz-adv-x="274" 
d="M266 0v515h-121v-410h-16v410h-121v-455q0 -30 12.5 -45.5t42.5 -15.5q11 0 24.5 2.5t25.5 5.5l32 8v-15h121z" />
    <glyph glyph-name="v" unicode="v" horiz-adv-x="284" 
d="M284 515h-121l-21 -265l-21 265h-121l82 -515h120z" />
    <glyph glyph-name="w" unicode="w" horiz-adv-x="364" 
d="M364 515h-106l-25 -261l-12 261h-78l-12 -261l-25 261h-106l67 -515h100l15 164l15 -164h100z" />
    <glyph glyph-name="x" unicode="x" horiz-adv-x="276" 
d="M281 0v2l-57 267l52 245v1h-121l-17 -141l-17 141h-121v-1l52 -245l-57 -267v-2h123l20 169l20 -169h123z" />
    <glyph glyph-name="y" unicode="y" horiz-adv-x="284" 
d="M284 515h-121l-21 -265l-21 265h-121l82 -515l-31 -180h120z" />
    <glyph glyph-name="z" unicode="z" horiz-adv-x="232" 
d="M224 0v120h-88l88 294v101h-216v-120h88l-88 -294v-101h216z" />
    <glyph glyph-name="braceleft" unicode="{" horiz-adv-x="308" 
d="M300 -121v121h-38q-15 0 -25 10t-10 25v139q0 22 -1 36t-5 24.5t-11 20t-20 24.5l-51 58l51 58q13 15 20 24.5t11 20t5 24t1 36.5v113q0 30 30 30h43v121h-68q-75 0 -101.5 -35.5t-26.5 -110.5v-151l-96 -128v-4l96 -128v-182q0 -75 26.5 -110.5t101.5 -35.5h68z" />
    <glyph glyph-name="bar" unicode="|" horiz-adv-x="137" 
d="M129 -190v954h-121v-954h121z" />
    <glyph glyph-name="braceright" unicode="}" horiz-adv-x="308" 
d="M300 335v4l-96 128v151q0 75 -26.5 110.5t-101.5 35.5h-68v-121h43q30 0 30 -30v-113q0 -23 1 -36.5t4.5 -24t11 -20t20.5 -24.5l51 -58l-51 -58q-13 -15 -20.5 -25t-11 -20t-4.5 -24t-1 -36v-139q0 -15 -10 -25t-25 -10h-38v-121h68q75 0 101.5 35.5t26.5 110.5v182z
" />
    <glyph glyph-name="asciitilde" unicode="~" horiz-adv-x="390" 
d="M382 274v128h-121v-78l-79 53q-44 29 -89 29q-42 0 -63.5 -24.5t-21.5 -65.5v-128h121v79l79 -54q43 -29 89 -29q41 0 63 24t22 66z" />
    <glyph glyph-name="quotesinglbase" unicode="&#x201a;" horiz-adv-x="185" 
d="M178 157h-144l-27 -233h85z" />
    <glyph glyph-name="florin" unicode="&#x192;" horiz-adv-x="258" 
d="M260 764h-102q-60 0 -67 -60l-23 -189h-35l-15 -120h35l-56 -455h-54l-15 -120h115q60 0 68 60l63 515h39l15 120h-39l15 129h41z" />
    <glyph glyph-name="quotedblbase" unicode="&#x201e;" horiz-adv-x="345" 
d="M338 157h-144l-27 -233h85zM178 157h-144l-27 -233h85z" />
    <glyph glyph-name="ellipsis" unicode="&#x2026;" horiz-adv-x="438" 
d="M430 0v140h-130v-140h130zM284 0v140h-130v-140h130zM138 0v140h-130v-140h130z" />
    <glyph glyph-name="dagger" unicode="&#x2020;" horiz-adv-x="341" 
d="M333 485v123h-101v156h-123v-156h-101v-123h101v-485h123v485h101z" />
    <glyph glyph-name="daggerdbl" unicode="&#x2021;" horiz-adv-x="341" 
d="M333 181v123h-101v181h101v123h-101v156h-123v-156h-101v-123h101v-181h-101v-123h101v-181h123v181h101z" />
    <glyph glyph-name="circumflex" unicode="&#x2c6;" 
d="M251 531v5l-81 135h-74l-81 -135v-5h58l60 56l60 -56h58z" />
    <glyph glyph-name="perthousand" unicode="&#x2030;" horiz-adv-x="662" 
d="M654 60v263q0 60 -60 60h-98q-60 0 -60 -60v-263q0 -60 60 -60h98q60 0 60 60zM420 60v263q0 60 -60 60h-100l136 370v11h-90l-80 -218v158q0 60 -60 60h-98q-60 0 -60 -60v-263q0 -60 60 -60h97l-136 -370v-11h90l83 226v-166q0 -60 60 -60h98q60 0 60 60zM553 85h-16
v213h16v-213zM125 466h-16v213h16v-213zM319 85h-16v213h16v-213z" />
    <glyph glyph-name="Scaron" unicode="&#x160;" horiz-adv-x="280" 
d="M272 81v188q0 19 -4.5 33t-15.5 29l-121 173v146h18v-135h123v168q0 45 -19.5 64.5t-64.5 19.5h-96q-45 0 -64.5 -19.5t-19.5 -64.5v-187q0 -19 4.5 -32.5t15.5 -29.5l121 -173v-147h-18v137h-123v-170q0 -45 19.5 -64.5t64.5 -19.5h96q45 0 64.5 19.5t19.5 64.5z
M258 915v5h-58l-60 -56l-60 56h-58v-5l81 -135h74z" />
    <glyph glyph-name="guilsinglleft" unicode="&#x2039;" horiz-adv-x="245" 
d="M237 76v5l-85 190l85 190v5h-143l-86 -192v-6l86 -192h143z" />
    <glyph glyph-name="OE" unicode="&#x152;" horiz-adv-x="345" 
d="M339 0v123h-72v212h66v123h-66v183h70v123h-245q-45 0 -64.5 -19.5t-19.5 -64.5v-596q0 -45 19.5 -64.5t64.5 -19.5h247zM149 117h-18v530h18v-530z" />
    <glyph glyph-name="quoteleft" unicode="&#x2018;" horiz-adv-x="185" 
d="M178 764h-85l-86 -233h144z" />
    <glyph glyph-name="quoteright" unicode="&#x2019;" horiz-adv-x="185" 
d="M178 764h-144l-27 -233h85z" />
    <glyph glyph-name="quotedblleft" unicode="&#x201c;" horiz-adv-x="345" 
d="M338 764h-85l-86 -233h144zM178 764h-85l-86 -233h144z" />
    <glyph glyph-name="quotedblright" unicode="&#x201d;" horiz-adv-x="345" 
d="M338 764h-144l-27 -233h85zM178 764h-144l-27 -233h85z" />
    <glyph glyph-name="bullet" unicode="&#x2022;" horiz-adv-x="373" 
d="M365 259v245q0 45 -19.5 64.5t-64.5 19.5h-189q-45 0 -64.5 -19.5t-19.5 -64.5v-245q0 -45 19.5 -64.5t64.5 -19.5h189q45 0 64.5 19.5t19.5 64.5z" />
    <glyph glyph-name="endash" unicode="&#x2013;" horiz-adv-x="350" 
d="M342 217v136h-334v-136h334z" />
    <glyph glyph-name="emdash" unicode="&#x2014;" horiz-adv-x="524" 
d="M516 217v136h-508v-136h508z" />
    <glyph glyph-name="tilde" unicode="&#x2dc;" 
d="M254 587v75h-80v-38l-53 25q-16 8 -29.5 10.5t-27.5 2.5q-55 0 -55 -57v-74h80v38l54 -25q31 -14 56 -14q55 0 55 57z" />
    <glyph glyph-name="trademark" unicode="&#x2122;" horiz-adv-x="417" 
d="M409 307v457h-96l-20 -149l-22 149h-95v-457h80v220l15 -165h42l16 165v-220h80zM160 684v80h-152v-80h36v-377h80v377h36z" />
    <glyph glyph-name="scaron" unicode="&#x161;" 
d="M256 60v164q0 19 -6.5 29.5t-25.5 21.5l-100 57v78h16v-71h116v116q0 60 -60 60h-128q-60 0 -60 -60v-162q0 -19 7.5 -30t24.5 -21l100 -58v-79h-16v72h-116v-117q0 -60 60 -60h128q60 0 60 60zM251 666v5h-58l-60 -56l-60 56h-58v-5l81 -135h74z" />
    <glyph glyph-name="guilsinglright" unicode="&#x203a;" horiz-adv-x="245" 
d="M237 268v6l-86 192h-143v-5l85 -190l-85 -190v-5h143z" />
    <glyph glyph-name="oe" unicode="&#x153;" horiz-adv-x="391" 
d="M383 60v143h-116v-98h-16v114h102l30 30v206q0 60 -60 60h-255q-60 0 -60 -60v-395q0 -60 60 -60h255q60 0 60 60zM267 313h-16v97h16v-97zM140 105h-16v305h16v-305z" />
    <glyph glyph-name="Ydieresis" unicode="&#x178;" horiz-adv-x="292" 
d="M290 761v3h-124l-20 -255l-20 255h-124v-3l82 -499v-262h124v261zM271 780v121h-117v-121h117zM138 780v121h-117v-121h117z" />
    <glyph glyph-name="exclamdown" unicode="&#xa1;" horiz-adv-x="146" 
d="M138 624v140h-130v-140h130zM144 0l-13 608h-116l-13 -608h142z" />
    <glyph glyph-name="cent" unicode="&#xa2;" 
d="M256 191v150h-116v-105h-16v295h16v-101h116v146q0 60 -60 60h-9v128h-110v-128h-9q-60 0 -60 -60v-385q0 -60 60 -60h9v-131h110v131h9q60 0 60 60z" />
    <glyph glyph-name="sterling" unicode="&#xa3;" horiz-adv-x="288" 
d="M280 0v117h-135v191h95v117h-95v224h18v-117h117v150q0 45 -19.5 64.5t-64.5 19.5h-84q-45 0 -64.5 -19.5t-19.5 -64.5v-257h-20v-117h20v-191h-20v-117h272z" />
    <glyph glyph-name="currency" unicode="&#xa4;" horiz-adv-x="341" 
d="M348 0l-79 223l63 222h-112l-12 -48l-59 168v85h18v-92h117v125q0 45 -19.5 64.5t-64.5 19.5h-84q-45 0 -64.5 -19.5t-19.5 -64.5v-86q0 -22 3.5 -36t8.5 -30l39 -111l-42 -42q-12 -12 -18.5 -19.5t-10 -15t-4 -17.5t-0.5 -26v-216q0 -45 19.5 -64.5t64.5 -19.5h66
q48 0 58 35l1 4l14 -39h117zM160 202l-21 -85h-14v161l6 7z" />
    <glyph glyph-name="yen" unicode="&#xa5;" horiz-adv-x="277" 
d="M275 761v3h-117l-19 -255l-19 255h-118v-3l43 -274h-37v-110h54l9 -60h-63v-110h72v-207h118v207h72v110h-63l9 60h54v110h-37z" />
    <glyph glyph-name="brokenbar" unicode="&#xa6;" horiz-adv-x="268" 
d="M260 84v596q0 45 -19.5 64.5t-64.5 19.5h-84q-45 0 -64.5 -19.5t-19.5 -64.5v-596q0 -45 19.5 -64.5t64.5 -19.5h84q45 0 64.5 19.5t19.5 64.5zM148 584h-28v65h28v-65zM148 428h-28v65h28v-65zM148 270h-28v66h28v-66zM148 115h-28v66h28v-66z" />
    <glyph glyph-name="section" unicode="&#xa7;" horiz-adv-x="280" 
d="M272 58v140q0 18 -1 28t-4 17t-10 12t-19 13l-11 7l11 7q12 7 19 12.5t10 12.5t4 17t1 28v116q0 18 -5 28t-25 21l-111 58v86h18v-79h123v124q0 60 -60 60h-144q-60 0 -60 -60v-139q0 -17 0.5 -27.5t4 -17t10.5 -12t19 -13.5l11 -7l-11 -7q-12 -8 -19 -13.5t-10.5 -12
t-4 -17t-0.5 -27.5v-115q0 -18 5 -27.5t25 -21.5l111 -59v-87h-18v80h-123v-125q0 -60 60 -60h144q60 0 60 60zM149 324l-9 -5l-9 5v118l9 4l9 -4v-118z" />
    <glyph glyph-name="dieresis" unicode="&#xa8;" 
d="M257 531v121h-117v-121h117zM124 531v121h-117v-121h117z" />
    <glyph glyph-name="copyright" unicode="&#xa9;" horiz-adv-x="472" 
d="M464 60v644q0 60 -60 60h-336q-60 0 -60 -60v-644q0 -60 60 -60h336q60 0 60 60zM404 60h-336v644h336v-644zM334 228v104h-92v-79h-16v258h16v-79h92v104q0 60 -60 60h-80q-60 0 -60 -60v-308q0 -60 60 -60h80q60 0 60 60z" />
    <glyph glyph-name="ordfeminine" unicode="&#xaa;" horiz-adv-x="229" 
d="M221 352v364q0 48 -51 48h-108q-51 0 -51 -48v-94h95v58h16v-71h-63q-51 0 -51 -48v-161q0 -24 10.5 -36.5t36.5 -12.5q9 0 17.5 1.5t24.5 5.5l25 6v-12h99zM221 249v87h-213v-87h213zM122 436h-16v96h16v-96z" />
    <glyph glyph-name="guillemotleft" unicode="&#xab;" horiz-adv-x="406" 
d="M398 76v5l-85 190l85 190v5h-143l-86 -192v-6l86 -192h143zM237 76v5l-85 190l85 190v5h-143l-86 -192v-6l86 -192h143z" />
    <glyph glyph-name="logicalnot" unicode="&#xac;" horiz-adv-x="268" 
d="M260 84v596q0 45 -19.5 64.5t-64.5 19.5h-84q-45 0 -64.5 -19.5t-19.5 -64.5v-596q0 -45 19.5 -64.5t64.5 -19.5h84q45 0 64.5 19.5t19.5 64.5zM148 584h-28v65h28v-65zM148 428h-28v65h28v-65zM148 270h-28v66h28v-66zM148 115h-28v66h28v-66z" />
    <glyph glyph-name="minus" unicode="&#xad;" horiz-adv-x="268" 
d="M260 84v596q0 45 -19.5 64.5t-64.5 19.5h-84q-45 0 -64.5 -19.5t-19.5 -64.5v-596q0 -45 19.5 -64.5t64.5 -19.5h84q45 0 64.5 19.5t19.5 64.5zM148 584h-28v65h28v-65zM148 428h-28v65h28v-65zM148 270h-28v66h28v-66zM148 115h-28v66h28v-66z" />
    <glyph glyph-name="registered" unicode="&#xae;" horiz-adv-x="472" 
d="M464 60v644q0 60 -60 60h-336q-60 0 -60 -60v-644q0 -60 60 -60h336q60 0 60 60zM404 60h-336v644h336v-644zM347 168v5l-37 165l3 2q14 9 17.5 19t3.5 34v143q0 60 -60 60h-140v-428h92v348h18v-109h-10v-100l26 -139h87z" />
    <glyph glyph-name="macron" unicode="&#xaf;" 
d="M256 531v91h-248v-91h248z" />
    <glyph glyph-name="degree" unicode="&#xb0;" horiz-adv-x="224" 
d="M216 616v88q0 60 -60 60h-88q-60 0 -60 -60v-88q0 -60 60 -60h88q60 0 60 60zM136 636h-48v48h48v-48z" />
    <glyph glyph-name="plusminus" unicode="&#xb1;" horiz-adv-x="421" 
d="M413 0v764h-198q-39 0 -52 -24v24h-85q-60 0 -60 -60v-189h-16v-120h16v-395h121v395h16v-395h121v395h16v-395h121zM292 515h-16v129h16v-129zM155 515h-16v129h16v-129z" />
    <glyph glyph-name="twosuperior" unicode="&#xb2;" horiz-adv-x="268" 
d="M260 84v596q0 45 -19.5 64.5t-64.5 19.5h-84q-45 0 -64.5 -19.5t-19.5 -64.5v-596q0 -45 19.5 -64.5t64.5 -19.5h84q45 0 64.5 19.5t19.5 64.5zM148 584h-28v65h28v-65zM148 428h-28v65h28v-65zM148 270h-28v66h28v-66zM148 115h-28v66h28v-66z" />
    <glyph glyph-name="threesuperior" unicode="&#xb3;" horiz-adv-x="268" 
d="M260 84v596q0 45 -19.5 64.5t-64.5 19.5h-84q-45 0 -64.5 -19.5t-19.5 -64.5v-596q0 -45 19.5 -64.5t64.5 -19.5h84q45 0 64.5 19.5t19.5 64.5zM148 584h-28v65h28v-65zM148 428h-28v65h28v-65zM148 270h-28v66h28v-66zM148 115h-28v66h28v-66z" />
    <glyph glyph-name="acute" unicode="&#xb4;" 
d="M222 664v7h-130l-65 -133v-7h85z" />
    <glyph glyph-name="mu" unicode="&#xb5;" horiz-adv-x="397" 
d="M389 0v764h-118l-72 -166h-1l-72 166h-118v-764h118v499l18 -54v-445h109v445l18 54v-499h118z" />
    <glyph glyph-name="paragraph" unicode="&#xb6;" horiz-adv-x="324" 
d="M316 0v764h-224q-45 0 -64.5 -19.5t-19.5 -64.5v-345q0 -45 19.5 -64.5t64.5 -19.5h4v-251h101v251h18v-251h101zM215 378h-18v258h18v-258z" />
    <glyph glyph-name="periodcentered" unicode="&#xb7;" horiz-adv-x="186" 
d="M178 231v167h-170v-167h170z" />
    <glyph glyph-name="periodcentered" unicode="&#x2219;" horiz-adv-x="186" 
d="M178 231v167h-170v-167h170z" />
    <glyph glyph-name="cedilla" unicode="&#xb8;" 
d="M235 -120v28q0 13 -1 22t-4.5 16t-10 12t-17.5 10l-39 19v23h-70v-27q0 -24 7 -36t28 -21l30 -13v-23h-55v32h-77v-42q0 -60 60 -60h89q60 0 60 60z" />
    <glyph glyph-name="onesuperior" unicode="&#xb9;" horiz-adv-x="268" 
d="M260 84v596q0 45 -19.5 64.5t-64.5 19.5h-84q-45 0 -64.5 -19.5t-19.5 -64.5v-596q0 -45 19.5 -64.5t64.5 -19.5h84q45 0 64.5 19.5t19.5 64.5zM148 584h-28v65h28v-65zM148 428h-28v65h28v-65zM148 270h-28v66h28v-66zM148 115h-28v66h28v-66z" />
    <glyph glyph-name="ordmasculine" unicode="&#xba;" horiz-adv-x="226" 
d="M218 400v316q0 48 -51 48h-108q-51 0 -51 -48v-316q0 -48 51 -48h108q51 0 51 48zM218 249v87h-210v-87h210zM121 436h-16v244h16v-244z" />
    <glyph glyph-name="guillemotright" unicode="&#xbb;" horiz-adv-x="406" 
d="M398 268v6l-86 192h-143v-5l85 -190l-85 -190v-5h143zM237 268v6l-86 192h-143v-5l85 -190l-85 -190v-5h143z" />
    <glyph glyph-name="onequarter" unicode="&#xbc;" horiz-adv-x="268" 
d="M260 84v596q0 45 -19.5 64.5t-64.5 19.5h-84q-45 0 -64.5 -19.5t-19.5 -64.5v-596q0 -45 19.5 -64.5t64.5 -19.5h84q45 0 64.5 19.5t19.5 64.5zM148 584h-28v65h28v-65zM148 428h-28v65h28v-65zM148 270h-28v66h28v-66zM148 115h-28v66h28v-66z" />
    <glyph glyph-name="onehalf" unicode="&#xbd;" horiz-adv-x="268" 
d="M260 84v596q0 45 -19.5 64.5t-64.5 19.5h-84q-45 0 -64.5 -19.5t-19.5 -64.5v-596q0 -45 19.5 -64.5t64.5 -19.5h84q45 0 64.5 19.5t19.5 64.5zM148 584h-28v65h28v-65zM148 428h-28v65h28v-65zM148 270h-28v66h28v-66zM148 115h-28v66h28v-66z" />
    <glyph glyph-name="threequarters" unicode="&#xbe;" horiz-adv-x="268" 
d="M260 84v596q0 45 -19.5 64.5t-64.5 19.5h-84q-45 0 -64.5 -19.5t-19.5 -64.5v-596q0 -45 19.5 -64.5t64.5 -19.5h84q45 0 64.5 19.5t19.5 64.5zM148 584h-28v65h28v-65zM148 428h-28v65h28v-65zM148 270h-28v66h28v-66zM148 115h-28v66h28v-66z" />
    <glyph glyph-name="questiondown" unicode="&#xbf;" horiz-adv-x="280" 
d="M216 624v140h-130v-140h130zM272 84v151h-123v-118h-18v129l67 165q5 13 8 21.5t4.5 16t2 17t0.5 25.5v117h-124v-142l-66 -165q-5 -13 -8 -21t-4.5 -15.5t-2 -16.5t-0.5 -25v-139q0 -45 19.5 -64.5t64.5 -19.5h96q45 0 64.5 19.5t19.5 64.5z" />
    <glyph glyph-name="Agrave" unicode="&#xc0;" horiz-adv-x="290" 
d="M288 0v2l-73 762h-140l-73 -762v-2h115l6 119h44l6 -119h115zM160 242h-30l15 276zM201 780v7l-65 133h-130v-7l110 -133h85z" />
    <glyph glyph-name="Aacute" unicode="&#xc1;" horiz-adv-x="290" 
d="M288 0v2l-73 762h-140l-73 -762v-2h115l6 119h44l6 -119h115zM160 242h-30l15 276zM285 913v7h-130l-65 -133v-7h85z" />
    <glyph glyph-name="Acircumflex" unicode="&#xc2;" horiz-adv-x="290" 
d="M288 0v2l-73 762h-140l-73 -762v-2h115l6 119h44l6 -119h115zM160 242h-30l15 276zM263 780v5l-81 135h-74l-81 -135v-5h58l60 56l60 -56h58z" />
    <glyph glyph-name="Atilde" unicode="&#xc3;" horiz-adv-x="290" 
d="M288 0v2l-73 762h-140l-73 -762v-2h115l6 119h44l6 -119h115zM160 242h-30l15 276zM268 836v75h-80v-38l-53 25q-16 8 -29.5 10.5t-27.5 2.5q-55 0 -55 -57v-74h80v38l54 -25q31 -14 56 -14q55 0 55 57z" />
    <glyph glyph-name="Adieresis" unicode="&#xc4;" horiz-adv-x="290" 
d="M288 0v2l-73 762h-140l-73 -762v-2h115l6 119h44l6 -119h115zM160 242h-30l15 276zM270 780v121h-117v-121h117zM137 780v121h-117v-121h117z" />
    <glyph glyph-name="Aring" unicode="&#xc5;" horiz-adv-x="290" 
d="M288 0v2l-66 689l4 2q23 11 23 51v88q0 60 -60 60h-88q-60 0 -60 -60v-88q0 -39 23 -51q0 -1 2 -1.5l2 -0.5l-66 -689v-2h115l6 119h44l6 -119h115zM169 764h-48v48h48v-48zM160 242h-30l15 276z" />
    <glyph glyph-name="AE" unicode="&#xc6;" horiz-adv-x="368" 
d="M362 0v123h-72v212h66v123h-66v183h70v123h-244l-116 -762v-2h115l13 119h44v-119h190zM172 242h-30l30 276v-276z" />
    <glyph glyph-name="Ccedilla" unicode="&#xc7;" horiz-adv-x="280" 
d="M272 81v169h-123v-136h-18v536h18v-132h123v165q0 45 -19.5 64.5t-64.5 19.5h-96q-45 0 -64.5 -19.5t-19.5 -64.5v-602q0 -45 19.5 -64.5t64.5 -19.5h13v-14q0 -24 7 -36t28 -21l30 -13v-23h-55v32h-77v-42q0 -60 60 -60h89q60 0 60 60v28q0 13 -1 22t-4.5 16t-10 12
t-17.5 10l-39 19v10h13q45 0 64.5 19.5t19.5 64.5z" />
    <glyph glyph-name="Egrave" unicode="&#xc8;" horiz-adv-x="214" 
d="M208 0v123h-77v212h71v123h-71v183h75v123h-198v-764h200zM171 780v7l-65 133h-130v-7l110 -133h85z" />
    <glyph glyph-name="Eacute" unicode="&#xc9;" horiz-adv-x="214" 
d="M208 0v123h-77v212h71v123h-71v183h75v123h-198v-764h200zM239 913v7h-130l-65 -133v-7h85z" />
    <glyph glyph-name="Ecircumflex" unicode="&#xca;" horiz-adv-x="214" 
d="M208 0v123h-77v212h71v123h-71v183h75v123h-198v-764h200zM226 780v5l-81 135h-74l-81 -135v-5h58l60 56l60 -56h58z" />
    <glyph glyph-name="Edieresis" unicode="&#xcb;" horiz-adv-x="214" 
d="M208 0v123h-77v212h71v123h-71v183h75v123h-198v-764h200zM232 780v121h-117v-121h117zM99 780v121h-117v-121h117z" />
    <glyph glyph-name="Igrave" unicode="&#xcc;" horiz-adv-x="139" 
d="M131 0v764h-123v-764h123zM148 780v7l-65 133h-130v-7l110 -133h85z" />
    <glyph glyph-name="Iacute" unicode="&#xcd;" horiz-adv-x="139" 
d="M131 0v764h-123v-764h123zM188 913v7h-130l-65 -133v-7h85z" />
    <glyph glyph-name="Icircumflex" unicode="&#xce;" horiz-adv-x="139" 
d="M131 0v764h-123v-764h123zM189 780v5l-81 135h-74l-81 -135v-5h58l60 56l60 -56h58z" />
    <glyph glyph-name="Idieresis" unicode="&#xcf;" horiz-adv-x="139" 
d="M131 0v764h-123v-764h123zM195 780v121h-117v-121h117zM62 780v121h-117v-121h117z" />
    <glyph glyph-name="Eth" unicode="&#xd0;" horiz-adv-x="284" 
d="M276 84v596q0 45 -19.5 64.5t-64.5 19.5h-180v-322h-12v-128h12v-314h180q45 0 64.5 19.5t19.5 64.5zM153 126q0 -9 -9 -9h-9v197h12v128h-12v205h9q9 0 9 -9v-512z" />
    <glyph glyph-name="Ntilde" unicode="&#xd1;" horiz-adv-x="300" 
d="M292 0v764h-120v-230q0 -6 1 -22.5t1.5 -34t1.5 -31.5l1 -14l-54 332h-115v-764h120v230q0 6 -1 22.5t-1.5 34t-1.5 31.5l-1 14l54 -332h115zM273 836v75h-80v-38l-53 25q-16 8 -29.5 10.5t-27.5 2.5q-55 0 -55 -57v-74h80v38l54 -25q31 -14 56 -14q55 0 55 57z" />
    <glyph glyph-name="Ograve" unicode="&#xd2;" horiz-adv-x="280" 
d="M272 81v602q0 45 -19.5 64.5t-64.5 19.5h-96q-45 0 -64.5 -19.5t-19.5 -64.5v-602q0 -45 19.5 -64.5t64.5 -19.5h96q45 0 64.5 19.5t19.5 64.5zM149 114h-18v536h18v-536zM201 780v7l-65 133h-130v-7l110 -133h85z" />
    <glyph glyph-name="Oacute" unicode="&#xd3;" horiz-adv-x="280" 
d="M272 81v602q0 45 -19.5 64.5t-64.5 19.5h-96q-45 0 -64.5 -19.5t-19.5 -64.5v-602q0 -45 19.5 -64.5t64.5 -19.5h96q45 0 64.5 19.5t19.5 64.5zM149 114h-18v536h18v-536zM280 913v7h-130l-65 -133v-7h85z" />
    <glyph glyph-name="Ocircumflex" unicode="&#xd4;" horiz-adv-x="280" 
d="M272 81v602q0 45 -19.5 64.5t-64.5 19.5h-96q-45 0 -64.5 -19.5t-19.5 -64.5v-602q0 -45 19.5 -64.5t64.5 -19.5h96q45 0 64.5 19.5t19.5 64.5zM149 114h-18v536h18v-536zM258 780v5l-81 135h-74l-81 -135v-5h58l60 56l60 -56h58z" />
    <glyph glyph-name="Otilde" unicode="&#xd5;" horiz-adv-x="280" 
d="M272 81v602q0 45 -19.5 64.5t-64.5 19.5h-96q-45 0 -64.5 -19.5t-19.5 -64.5v-602q0 -45 19.5 -64.5t64.5 -19.5h96q45 0 64.5 19.5t19.5 64.5zM149 114h-18v536h18v-536zM263 836v75h-80v-38l-53 25q-16 8 -29.5 10.5t-27.5 2.5q-55 0 -55 -57v-74h80v38l54 -25
q31 -14 56 -14q55 0 55 57z" />
    <glyph glyph-name="Odieresis" unicode="&#xd6;" horiz-adv-x="280" 
d="M272 81v602q0 45 -19.5 64.5t-64.5 19.5h-96q-45 0 -64.5 -19.5t-19.5 -64.5v-602q0 -45 19.5 -64.5t64.5 -19.5h96q45 0 64.5 19.5t19.5 64.5zM149 114h-18v536h18v-536zM265 780v121h-117v-121h117zM132 780v121h-117v-121h117z" />
    <glyph glyph-name="multiply" unicode="&#xd7;" horiz-adv-x="268" 
d="M260 84v596q0 45 -19.5 64.5t-64.5 19.5h-84q-45 0 -64.5 -19.5t-19.5 -64.5v-596q0 -45 19.5 -64.5t64.5 -19.5h84q45 0 64.5 19.5t19.5 64.5zM148 584h-28v65h28v-65zM148 428h-28v65h28v-65zM148 270h-28v66h28v-66zM148 115h-28v66h28v-66z" />
    <glyph glyph-name="Oslash" unicode="&#xd8;" horiz-adv-x="280" 
d="M279 832v10h-124l-11 -75h-52q-45 0 -64.5 -19.5t-19.5 -64.5v-602q0 -51 26 -70l-12 -79v-10h124l11 75h31q45 0 64.5 19.5t19.5 64.5v602q0 28 -8 47zM149 114h-18v536h18v-536z" />
    <glyph glyph-name="Ugrave" unicode="&#xd9;" horiz-adv-x="280" 
d="M272 81v683h-123v-650h-18v650h-123v-683q0 -45 19.5 -64.5t64.5 -19.5h96q45 0 64.5 19.5t19.5 64.5zM201 780v7l-65 133h-130v-7l110 -133h85z" />
    <glyph glyph-name="Uacute" unicode="&#xda;" horiz-adv-x="280" 
d="M272 81v683h-123v-650h-18v650h-123v-683q0 -45 19.5 -64.5t64.5 -19.5h96q45 0 64.5 19.5t19.5 64.5zM275 913v7h-130l-65 -133v-7h85z" />
    <glyph glyph-name="Ucircumflex" unicode="&#xdb;" horiz-adv-x="280" 
d="M272 81v683h-123v-650h-18v650h-123v-683q0 -45 19.5 -64.5t64.5 -19.5h96q45 0 64.5 19.5t19.5 64.5zM258 780v5l-81 135h-74l-81 -135v-5h58l60 56l60 -56h58z" />
    <glyph glyph-name="Udieresis" unicode="&#xdc;" horiz-adv-x="280" 
d="M272 81v683h-123v-650h-18v650h-123v-683q0 -45 19.5 -64.5t64.5 -19.5h96q45 0 64.5 19.5t19.5 64.5zM265 780v121h-117v-121h117zM132 780v121h-117v-121h117z" />
    <glyph glyph-name="Yacute" unicode="&#xdd;" horiz-adv-x="292" 
d="M290 761v3h-124l-20 -255l-20 255h-124v-3l82 -499v-262h124v261zM282 913v7h-130l-65 -133v-7h85z" />
    <glyph glyph-name="Thorn" unicode="&#xde;" horiz-adv-x="280" 
d="M272 222v326q0 28 -4.5 46.5t-15 29.5t-29.5 15t-47 4h-45v121h-123v-764h123v127h45q28 0 47 4t29.5 15t15 29t4.5 47zM149 245h-18v281h18v-281z" />
    <glyph glyph-name="germandbls" unicode="&#xdf;" horiz-adv-x="274" 
d="M266 84v201q0 16 -0.5 25.5t-3 18t-7.5 18t-14 24.5l-17 30l17 30q9 15 14 24.5t7.5 18t3 18.5t0.5 26v120q0 36 -5.5 60t-19.5 38.5t-37.5 21t-59.5 6.5h-136v-764h121v362l16 -28v-229h-8v-105h45q45 0 64.5 19.5t19.5 64.5zM145 468l-16 -28v205h6q10 0 10 -10v-167z
" />
    <glyph glyph-name="agrave" unicode="&#xe0;" 
d="M256 0v455q0 60 -60 60h-124q-60 0 -60 -60v-118h112v73h16v-89h-72q-60 0 -60 -60v-201q0 -30 12.5 -45.5t42.5 -15.5q11 0 21 1.5t29 6.5l27 8v-15h116zM140 105h-16v120h16v-120zM206 531v7l-65 133h-130v-7l110 -133h85z" />
    <glyph glyph-name="aacute" unicode="&#xe1;" 
d="M256 0v455q0 60 -60 60h-124q-60 0 -60 -60v-118h112v73h16v-89h-72q-60 0 -60 -60v-201q0 -30 12.5 -45.5t42.5 -15.5q11 0 21 1.5t29 6.5l27 8v-15h116zM140 105h-16v120h16v-120zM259 664v7h-130l-65 -133v-7h85z" />
    <glyph glyph-name="acircumflex" unicode="&#xe2;" 
d="M256 0v455q0 60 -60 60h-124q-60 0 -60 -60v-118h112v73h16v-89h-72q-60 0 -60 -60v-201q0 -30 12.5 -45.5t42.5 -15.5q11 0 21 1.5t29 6.5l27 8v-15h116zM140 105h-16v120h16v-120zM253 531v5l-81 135h-74l-81 -135v-5h58l60 56l60 -56h58z" />
    <glyph glyph-name="atilde" unicode="&#xe3;" 
d="M256 0v455q0 60 -60 60h-124q-60 0 -60 -60v-118h112v73h16v-89h-72q-60 0 -60 -60v-201q0 -30 12.5 -45.5t42.5 -15.5q11 0 21 1.5t29 6.5l27 8v-15h116zM140 105h-16v120h16v-120zM257 587v75h-80v-38l-53 25q-16 8 -29.5 10.5t-27.5 2.5q-55 0 -55 -57v-74h80v38
l54 -25q31 -14 56 -14q55 0 55 57z" />
    <glyph glyph-name="adieresis" unicode="&#xe4;" 
d="M256 0v455q0 60 -60 60h-124q-60 0 -60 -60v-118h112v73h16v-89h-72q-60 0 -60 -60v-201q0 -30 12.5 -45.5t42.5 -15.5q11 0 21 1.5t29 6.5l27 8v-15h116zM140 105h-16v120h16v-120zM259 531v121h-117v-121h117zM126 531v121h-117v-121h117z" />
    <glyph glyph-name="aring" unicode="&#xe5;" 
d="M256 0v455q0 60 -60 60h-124q-60 0 -60 -60v-118h112v73h16v-89h-72q-60 0 -60 -60v-201q0 -30 12.5 -45.5t42.5 -15.5q11 0 21 1.5t29 6.5l27 8v-15h116zM140 105h-16v120h16v-120zM239 591v88q0 60 -60 60h-88q-60 0 -60 -60v-88q0 -60 60 -60h88q60 0 60 60zM159 611
h-48v48h48v-48z" />
    <glyph glyph-name="ae" unicode="&#xe6;" horiz-adv-x="391" 
d="M383 60v146h-116v-101h-16v117h102l30 30v203q0 60 -60 60h-251q-60 0 -60 -60v-121h112v76h16v-92h-72q-60 0 -60 -60v-198q0 -30 12.5 -45t42.5 -15q11 0 21.5 1t28.5 6l39 12q8 -10 19 -14.5t29 -4.5h123q60 0 60 60zM267 318h-16v92h16v-92zM140 105h-16v117h16v-117
z" />
    <glyph glyph-name="ccedilla" unicode="&#xe7;" 
d="M256 60v155h-116v-110h-16v305h16v-106h116v151q0 60 -60 60h-128q-60 0 -60 -60v-395q0 -60 60 -60h29v-17q0 -24 7 -36t28 -21l30 -13v-23h-55v32h-77v-42q0 -60 60 -60h89q60 0 60 60v28q0 13 -1 22t-4.5 16t-10 12t-17.5 10l-39 19v13h29q60 0 60 60z" />
    <glyph glyph-name="egrave" unicode="&#xe8;" 
d="M256 60v143h-116v-98h-16v114h102l30 30v206q0 60 -60 60h-128q-60 0 -60 -60v-395q0 -60 60 -60h128q60 0 60 60zM140 313h-16v97h16v-97zM204 531v7l-65 133h-130v-7l110 -133h85z" />
    <glyph glyph-name="eacute" unicode="&#xe9;" 
d="M256 60v143h-116v-98h-16v114h102l30 30v206q0 60 -60 60h-128q-60 0 -60 -60v-395q0 -60 60 -60h128q60 0 60 60zM140 313h-16v97h16v-97zM257 664v7h-130l-65 -133v-7h85z" />
    <glyph glyph-name="ecircumflex" unicode="&#xea;" 
d="M256 60v143h-116v-98h-16v114h102l30 30v206q0 60 -60 60h-128q-60 0 -60 -60v-395q0 -60 60 -60h128q60 0 60 60zM140 313h-16v97h16v-97zM251 531v5l-81 135h-74l-81 -135v-5h58l60 56l60 -56h58z" />
    <glyph glyph-name="edieresis" unicode="&#xeb;" 
d="M256 60v143h-116v-98h-16v114h102l30 30v206q0 60 -60 60h-128q-60 0 -60 -60v-395q0 -60 60 -60h128q60 0 60 60zM140 313h-16v97h16v-97zM257 531v121h-117v-121h117zM124 531v121h-117v-121h117z" />
    <glyph glyph-name="igrave" unicode="&#xec;" horiz-adv-x="137" 
d="M129 0v515h-121v-515h121zM145 531v7l-65 133h-130v-7l110 -133h85z" />
    <glyph glyph-name="iacute" unicode="&#xed;" horiz-adv-x="137" 
d="M129 0v515h-121v-515h121zM189 664v7h-130l-65 -133v-7h85z" />
    <glyph glyph-name="icircumflex" unicode="&#xee;" horiz-adv-x="137" 
d="M129 0v515h-121v-515h121zM187 531v5l-81 135h-74l-81 -135v-5h58l60 56l60 -56h58z" />
    <glyph glyph-name="idieresis" unicode="&#xef;" horiz-adv-x="137" 
d="M129 0v515h-121v-515h121zM196 531v121h-117v-121h117zM63 531v121h-117v-121h117z" />
    <glyph glyph-name="eth" unicode="&#xf0;" horiz-adv-x="274" 
d="M288 579v121h-3l-19 -7v11q0 60 -60 60h-138q-60 0 -60 -60v-105h121v60h16v-9l-8 -3v-121h4l4 1v-12h-77q-60 0 -60 -60v-395q0 -60 60 -60h138q60 0 60 60v511zM145 105h-16v305h16v-305z" />
    <glyph glyph-name="ntilde" unicode="&#xf1;" horiz-adv-x="274" 
d="M266 0v455q0 30 -12.5 45.5t-42.5 15.5q-11 0 -24.5 -2.5t-25.5 -5.5l-32 -8v15h-121v-515h121v410h16v-410h121zM261 587v75h-80v-38l-53 25q-16 8 -29.5 10.5t-27.5 2.5q-55 0 -55 -57v-74h80v38l54 -25q31 -14 56 -14q55 0 55 57z" />
    <glyph glyph-name="ograve" unicode="&#xf2;" 
d="M256 60v395q0 60 -60 60h-128q-60 0 -60 -60v-395q0 -60 60 -60h128q60 0 60 60zM140 105h-16v305h16v-305zM204 531v7l-65 133h-130v-7l110 -133h85z" />
    <glyph glyph-name="oacute" unicode="&#xf3;" 
d="M256 60v395q0 60 -60 60h-128q-60 0 -60 -60v-395q0 -60 60 -60h128q60 0 60 60zM140 105h-16v305h16v-305zM257 664v7h-130l-65 -133v-7h85z" />
    <glyph glyph-name="ocircumflex" unicode="&#xf4;" 
d="M256 60v395q0 60 -60 60h-128q-60 0 -60 -60v-395q0 -60 60 -60h128q60 0 60 60zM140 105h-16v305h16v-305zM251 531v5l-81 135h-74l-81 -135v-5h58l60 56l60 -56h58z" />
    <glyph glyph-name="otilde" unicode="&#xf5;" 
d="M256 60v395q0 60 -60 60h-128q-60 0 -60 -60v-395q0 -60 60 -60h128q60 0 60 60zM140 105h-16v305h16v-305zM254 587v75h-80v-38l-53 25q-16 8 -29.5 10.5t-27.5 2.5q-55 0 -55 -57v-74h80v38l54 -25q31 -14 56 -14q55 0 55 57z" />
    <glyph glyph-name="odieresis" unicode="&#xf6;" 
d="M256 60v395q0 60 -60 60h-128q-60 0 -60 -60v-395q0 -60 60 -60h128q60 0 60 60zM140 105h-16v305h16v-305zM257 531v121h-117v-121h117zM124 531v121h-117v-121h117z" />
    <glyph glyph-name="divide" unicode="&#xf7;" horiz-adv-x="268" 
d="M260 84v596q0 45 -19.5 64.5t-64.5 19.5h-84q-45 0 -64.5 -19.5t-19.5 -64.5v-596q0 -45 19.5 -64.5t64.5 -19.5h84q45 0 64.5 19.5t19.5 64.5zM148 584h-28v65h28v-65zM148 428h-28v65h28v-65zM148 270h-28v66h28v-66zM148 115h-28v66h28v-66z" />
    <glyph glyph-name="oslash" unicode="&#xf8;" 
d="M256 60v395q0 32 -17 47l14 78v10h-122l-13 -75h-50q-60 0 -60 -60v-395q0 -37 21 -50l-13 -75v-10h122l13 75h45q60 0 60 60zM140 105h-16v305h16v-305z" />
    <glyph glyph-name="ugrave" unicode="&#xf9;" horiz-adv-x="274" 
d="M266 0v515h-121v-410h-16v410h-121v-455q0 -30 12.5 -45.5t42.5 -15.5q11 0 24.5 2.5t25.5 5.5l32 8v-15h121zM204 531v7l-65 133h-130v-7l110 -133h85z" />
    <glyph glyph-name="uacute" unicode="&#xfa;" horiz-adv-x="274" 
d="M266 0v515h-121v-410h-16v410h-121v-455q0 -30 12.5 -45.5t42.5 -15.5q11 0 24.5 2.5t25.5 5.5l32 8v-15h121zM257 664v7h-130l-65 -133v-7h85z" />
    <glyph glyph-name="ucircumflex" unicode="&#xfb;" horiz-adv-x="274" 
d="M266 0v515h-121v-410h-16v410h-121v-455q0 -30 12.5 -45.5t42.5 -15.5q11 0 24.5 2.5t25.5 5.5l32 8v-15h121zM251 531v5l-81 135h-74l-81 -135v-5h58l60 56l60 -56h58z" />
    <glyph glyph-name="udieresis" unicode="&#xfc;" horiz-adv-x="274" 
d="M266 0v515h-121v-410h-16v410h-121v-455q0 -30 12.5 -45.5t42.5 -15.5q11 0 24.5 2.5t25.5 5.5l32 8v-15h121zM262 531v121h-117v-121h117zM129 531v121h-117v-121h117z" />
    <glyph glyph-name="yacute" unicode="&#xfd;" horiz-adv-x="284" 
d="M284 515h-121l-21 -265l-21 265h-121l82 -515l-31 -180h120zM283 664v7h-130l-65 -133v-7h85z" />
    <glyph glyph-name="thorn" unicode="&#xfe;" horiz-adv-x="274" 
d="M266 80v375q0 30 -12.5 45.5t-42.5 15.5q-11 0 -24.5 -2.5t-25.5 -5.5l-32 -8v264h-121v-944h121v180h57q38 0 59 21t21 59zM145 113q0 -8 -8 -8h-8v305h16v-297z" />
    <glyph glyph-name="ydieresis" unicode="&#xff;" horiz-adv-x="284" 
d="M284 515h-121l-21 -265l-21 265h-121l82 -515l-31 -180h120zM268 531v121h-117v-121h117zM135 531v121h-117v-121h117z" />
    <glyph glyph-name="notequal" horiz-adv-x="294" 
d="M300 644v120h-85q-39 0 -52 -24v24h-85q-60 0 -60 -60v-189h-16v-120h16v-395h121v395h16v-395h121v395h16v120h-16v129h24zM155 515h-16v129h16v-129z" />
    <glyph glyph-name="infinity" horiz-adv-x="421" 
d="M413 0v515h-137v129h16v-113h121v173q0 60 -60 60h-138q-39 0 -52 -24v24h-85q-60 0 -60 -60v-189h-16v-120h16v-395h121v395h16v-395h121v395h16v-395h121zM155 515h-16v129h16v-129z" />
    <glyph glyph-name="lessequal" horiz-adv-x="268" 
d="M260 84v596q0 45 -19.5 64.5t-64.5 19.5h-84q-45 0 -64.5 -19.5t-19.5 -64.5v-596q0 -45 19.5 -64.5t64.5 -19.5h84q45 0 64.5 19.5t19.5 64.5zM148 584h-28v65h28v-65zM148 428h-28v65h28v-65zM148 270h-28v66h28v-66zM148 115h-28v66h28v-66z" />
    <glyph glyph-name="greaterequal" horiz-adv-x="268" 
d="M260 84v596q0 45 -19.5 64.5t-64.5 19.5h-84q-45 0 -64.5 -19.5t-19.5 -64.5v-596q0 -45 19.5 -64.5t64.5 -19.5h84q45 0 64.5 19.5t19.5 64.5zM148 584h-28v65h28v-65zM148 428h-28v65h28v-65zM148 270h-28v66h28v-66zM148 115h-28v66h28v-66z" />
    <glyph glyph-name="partialdiff" horiz-adv-x="268" 
d="M260 84v596q0 45 -19.5 64.5t-64.5 19.5h-84q-45 0 -64.5 -19.5t-19.5 -64.5v-596q0 -45 19.5 -64.5t64.5 -19.5h84q45 0 64.5 19.5t19.5 64.5zM148 584h-28v65h28v-65zM148 428h-28v65h28v-65zM148 270h-28v66h28v-66zM148 115h-28v66h28v-66z" />
    <glyph glyph-name="summation" horiz-adv-x="268" 
d="M260 84v596q0 45 -19.5 64.5t-64.5 19.5h-84q-45 0 -64.5 -19.5t-19.5 -64.5v-596q0 -45 19.5 -64.5t64.5 -19.5h84q45 0 64.5 19.5t19.5 64.5zM148 584h-28v65h28v-65zM148 428h-28v65h28v-65zM148 270h-28v66h28v-66zM148 115h-28v66h28v-66z" />
    <glyph glyph-name="product" horiz-adv-x="268" 
d="M260 84v596q0 45 -19.5 64.5t-64.5 19.5h-84q-45 0 -64.5 -19.5t-19.5 -64.5v-596q0 -45 19.5 -64.5t64.5 -19.5h84q45 0 64.5 19.5t19.5 64.5zM148 584h-28v65h28v-65zM148 428h-28v65h28v-65zM148 270h-28v66h28v-66zM148 115h-28v66h28v-66z" />
    <glyph glyph-name="pi" horiz-adv-x="472" 
d="M464 60v644q0 60 -60 60h-336q-60 0 -60 -60v-644q0 -60 60 -60h336q60 0 60 60zM404 60h-336v644h336v-644zM334 372v164q0 60 -60 60h-140v-428h92v144h48q60 0 60 60zM244 392h-18v124h18v-124z" />
    <glyph glyph-name="integral" horiz-adv-x="268" 
d="M260 84v596q0 45 -19.5 64.5t-64.5 19.5h-84q-45 0 -64.5 -19.5t-19.5 -64.5v-596q0 -45 19.5 -64.5t64.5 -19.5h84q45 0 64.5 19.5t19.5 64.5zM148 584h-28v65h28v-65zM148 428h-28v65h28v-65zM148 270h-28v66h28v-66zM148 115h-28v66h28v-66z" />
    <glyph glyph-name="Omega" horiz-adv-x="280" 
d="M272 0v683q0 45 -19.5 64.5t-64.5 19.5h-95q-46 0 -65.5 -19.5t-19.5 -64.5v-683h123v289h18v-289h123zM149 410h-18v240h18v-240z" />
    <glyph glyph-name="radical" horiz-adv-x="394" 
d="M394 764h-139l-101 -593l-15 93h-139v-7l96 -257h132z" />
    <glyph glyph-name="approxequal" horiz-adv-x="268" 
d="M260 84v596q0 45 -19.5 64.5t-64.5 19.5h-84q-45 0 -64.5 -19.5t-19.5 -64.5v-596q0 -45 19.5 -64.5t64.5 -19.5h84q45 0 64.5 19.5t19.5 64.5zM148 584h-28v65h28v-65zM148 428h-28v65h28v-65zM148 270h-28v66h28v-66zM148 115h-28v66h28v-66z" />
    <glyph glyph-name="Delta" horiz-adv-x="280" 
d="M272 356v408h-123v-375h-18v375h-123v-408q0 -45 17.5 -62t45.5 -21l7 -1v-272h124v272l7 1q29 4 46 21t17 62z" />
    <glyph glyph-name="nonbreakingspace" horiz-adv-x="50" 
 />
    <glyph glyph-name="lozenge" horiz-adv-x="268" 
d="M260 84v596q0 45 -19.5 64.5t-64.5 19.5h-84q-45 0 -64.5 -19.5t-19.5 -64.5v-596q0 -45 19.5 -64.5t64.5 -19.5h84q45 0 64.5 19.5t19.5 64.5zM148 584h-28v65h28v-65zM148 428h-28v65h28v-65zM148 270h-28v66h28v-66zM148 115h-28v66h28v-66z" />
    <glyph glyph-name="apple" horiz-adv-x="268" 
d="M260 84v596q0 45 -19.5 64.5t-64.5 19.5h-84q-45 0 -64.5 -19.5t-19.5 -64.5v-596q0 -45 19.5 -64.5t64.5 -19.5h84q45 0 64.5 19.5t19.5 64.5zM148 584h-28v65h28v-65zM148 428h-28v65h28v-65zM148 270h-28v66h28v-66zM148 115h-28v66h28v-66z" />
    </font>
</defs>
</svg>
